<?xml version="1.0" encoding="utf-8"?>
<!-- Generator: Adobe Illustrator 15.0.0, SVG Export Plug-In . SVG Version: 6.00 Build 0)  -->
<!DOCTYPE svg PUBLIC "-//W3C//DTD SVG 1.1//EN" "http://www.w3.org/Graphics/SVG/1.1/DTD/svg11.dtd">
<svg version="1.1" id="Layer_1" xmlns="http://www.w3.org/2000/svg" xmlns:xlink="http://www.w3.org/1999/xlink" x="0px" y="0px"
	 width="32px" height="26px" viewBox="0 0 32 26" enable-background="new 0 0 32 26" xml:space="preserve">
<g id="_x30_8">
	<g>
		<path fill-rule="evenodd" clip-rule="evenodd" d="M10,18c0-1.104-0.896-2-2-2s-2,0.896-2,2c0,1.105,0.896,2,2,2S10,19.105,10,18z
			 M7,18c0-0.553,0.448-1,1-1c0.553,0,1,0.447,1,1s-0.447,1-1,1C7.448,19,7,18.553,7,18z M5,5h3c1.104,0,2,0.896,2,2h1
			c0-1.657-1.343-3-3-3H5C3.344,4,2,5.343,2,7h1C3,5.896,3.896,5,5,5z M8,21c-2.209,0-4,1.791-4,4v1h1v-1c0-1.656,1.344-3,3-3
			c1.657,0,3,1.344,3,3c0-0.721,0.159-1.402,0.434-2.021C10.738,21.8,9.468,21,8,21z M15.001,5h12c1.104,0,2,0.896,2,2h1
			c0-1.657-1.344-3-3-3h-12C13.344,4,12,5.343,12,7h1C13,5.896,13.896,5,15.001,5z M31.501,4c-0.276,0-0.5,0.224-0.5,0.5V8H1V0.5
			C1,0.224,0.776,0,0.5,0S0,0.224,0,0.5v12C0,12.777,0.224,13,0.5,13S1,12.777,1,12.5V11h30.001v1.5c0,0.277,0.224,0.5,0.5,0.5
			s0.5-0.223,0.5-0.5v-8C32.001,4.224,31.777,4,31.501,4z M31.001,10H1V9h30.001V10z M26.001,18c0-1.104-0.896-2-2-2s-2,0.896-2,2
			c0,1.105,0.896,2,2,2S26.001,19.105,26.001,18z M23.001,18c0-0.553,0.447-1,1-1c0.552,0,1,0.447,1,1s-0.448,1-1,1
			C23.448,19,23.001,18.553,23.001,18z M16.001,21C13.792,21,12,22.791,12,25v1h1v-1c0-1.656,1.344-3,3.001-3c1.656,0,3,1.344,3,3
			c0-0.721,0.159-1.402,0.434-2.021C18.738,21.8,17.469,21,16.001,21z M18.001,18c0-1.104-0.896-2-2-2c-1.105,0-2,0.896-2,2
			c0,1.105,0.895,2,2,2C17.105,20,18.001,19.105,18.001,18z M15.001,18c0-0.553,0.447-1,1-1c0.552,0,1,0.447,1,1s-0.448,1-1,1
			C15.448,19,15.001,18.553,15.001,18z M24.001,21c-2.209,0-4,1.791-4,4v1h1v-1c0-1.656,1.343-3,3-3c1.656,0,3,1.344,3,3v1h1v-1
			C28.001,22.791,26.21,21,24.001,21z"/>
	</g>
</g>
</svg>
