<?xml version="1.0" encoding="utf-8"?>
<!-- Generator: Adobe Illustrator 15.0.0, SVG Export Plug-In . SVG Version: 6.00 Build 0)  -->
<!DOCTYPE svg PUBLIC "-//W3C//DTD SVG 1.1//EN" "http://www.w3.org/Graphics/SVG/1.1/DTD/svg11.dtd">
<svg version="1.1" id="Layer_1" xmlns="http://www.w3.org/2000/svg" xmlns:xlink="http://www.w3.org/1999/xlink" x="0px" y="0px"
	 width="32px" height="26px" viewBox="0 0 32 26" enable-background="new 0 0 32 26" xml:space="preserve">
<g id="_x30_9">
	<g>
		<path fill-rule="evenodd" clip-rule="evenodd" d="M4,21c-2.209,0-4,1.791-4,4v1h1v-1c0-1.656,1.343-3,3-3s3,1.344,3,3
			c0-0.721,0.159-1.402,0.434-2.021C6.738,21.8,5.468,21,4,21z M31.501,4c-0.276,0-0.5,0.224-0.5,0.5V8H1V0.5C1,0.224,0.776,0,0.5,0
			S0,0.224,0,0.5v12C0,12.777,0.224,13,0.5,13S1,12.777,1,12.5V11h30.001v1.5c0,0.277,0.224,0.5,0.5,0.5s0.5-0.223,0.5-0.5v-8
			C32.001,4.224,31.777,4,31.501,4z M31.001,10H1V9h30.001V10z M15,5h12.001c1.104,0,2,0.896,2,2h1c0-1.657-1.343-3-3-3H15
			c-1.657,0-3,1.343-3,3h1C13,5.896,13.896,5,15,5z M6,18c0-1.104-0.896-2-2-2s-2,0.896-2,2c0,1.105,0.896,2,2,2S6,19.105,6,18z
			 M3,18c0-0.553,0.447-1,1-1s1,0.447,1,1s-0.447,1-1,1S3,18.553,3,18z M5,5h3c1.104,0,2,0.896,2,2h1c0-1.657-1.343-3-3-3H5
			C3.343,4,2,5.343,2,7h1C3,5.896,3.896,5,5,5z M30.001,18c0-1.104-0.896-2-2-2s-2,0.896-2,2c0,1.105,0.896,2,2,2
			S30.001,19.105,30.001,18z M27.001,18c0-0.553,0.447-1,1-1s1,0.447,1,1s-0.447,1-1,1S27.001,18.553,27.001,18z M12,21
			c-2.209,0-4,1.791-4,4v1h1v-1c0-1.656,1.343-3,3-3c1.658,0,3,1.344,3,3c0-0.721,0.159-1.402,0.434-2.021
			C14.738,21.8,13.468,21,12,21z M20.001,21c-2.209,0-4,1.791-4,4v1h1v-1c0-1.656,1.343-3,3-3s3,1.344,3,3
			c0-0.721,0.159-1.402,0.434-2.021C22.738,21.8,21.469,21,20.001,21z M22.001,18c0-1.104-0.896-2-2-2s-2,0.896-2,2
			c0,1.105,0.896,2,2,2S22.001,19.105,22.001,18z M19.001,18c0-0.553,0.447-1,1-1s1,0.447,1,1s-0.447,1-1,1S19.001,18.553,19.001,18
			z M14,18c0-1.104-0.896-2-2-2s-2,0.896-2,2c0,1.105,0.896,2,2,2S14,19.105,14,18z M11,18c0-0.553,0.447-1,1-1s1,0.447,1,1
			s-0.447,1-1,1S11,18.553,11,18z M28.001,21c-2.209,0-4,1.791-4,4v1h1v-1c0-1.656,1.343-3,3-3s3,1.344,3,3v1h1v-1
			C32.001,22.791,30.21,21,28.001,21z"/>
	</g>
</g>
</svg>
