<?xml version="1.0" encoding="utf-8"?>
<!-- Generator: Adobe Illustrator 15.0.0, SVG Export Plug-In . SVG Version: 6.00 Build 0)  -->
<!DOCTYPE svg PUBLIC "-//W3C//DTD SVG 1.1//EN" "http://www.w3.org/Graphics/SVG/1.1/DTD/svg11.dtd">
<svg version="1.1" id="Layer_1" xmlns="http://www.w3.org/2000/svg" xmlns:xlink="http://www.w3.org/1999/xlink" x="0px" y="0px"
	 width="32px" height="27px" viewBox="0 0 32 27" enable-background="new 0 0 32 27" xml:space="preserve">
<g id="_x32_1">
	<g>
		<path fill-rule="evenodd" clip-rule="evenodd" d="M17.169,20.1c-0.542-0.435-1.186-0.696-1.168-1.198v-0.4
			c0-0.276-0.224-0.5-0.5-0.5S15,18.225,15,18.501v0.4c0,0.816,0.533,1.258,1.002,1.595c0.469,0.339,0.999,0.626,0.999,1.104
			c0,0.298-0.494,0.574-0.997,0.819c-0.171,0.084-0.413,0.175-0.59,0.252c-0.213,0.093-0.416,0.189-0.6,0.3
			C14.34,23.256,14,23.695,14,24.301c0,0.597,0.275,1.069,0.537,1.51c0.236,0.4,0.418,0.84,0.418,0.84
			c0.08,0.265,0.357,0.416,0.623,0.337c0.265-0.078,0.416-0.355,0.337-0.621c0,0-0.068-0.206-0.255-0.578
			c-0.176-0.352-0.402-0.716-0.529-0.983C15.041,24.616,15,24.47,15,24.301c0-0.496,0.763-0.646,1.506-1.011
			c0.739-0.361,1.479-0.823,1.495-1.689C18.001,20.897,17.599,20.444,17.169,20.1z M18.501,11H13.5c-0.276,0-0.5,0.225-0.5,0.5
			c0,0.277,0.224,0.5,0.5,0.5h5.001c0.276,0,0.5-0.223,0.5-0.5C19.001,11.225,18.777,11,18.501,11z M27.501,8H4.5
			C4.224,8,4,8.224,4,8.5S4.224,9,4.5,9h23.001c0.276,0,0.5-0.224,0.5-0.5S27.777,8,27.501,8z M27.501,4H4.5C4.224,4,4,4.224,4,4.5
			S4.224,5,4.5,5h23.001c0.276,0,0.5-0.224,0.5-0.5S27.777,4,27.501,4z M27.001,0H5C2.238,0,0,2.238,0,5v5
			c0,2.763,2.238,5.001,5,5.001h22.001c2.762,0,5-2.238,5-5.001V5C32.001,2.238,29.763,0,27.001,0z M31.001,10
			c0,2.209-1.791,4.001-4,4.001H5c-2.209,0-4-1.792-4-4.001V5c0-2.209,1.791-4,4-4h22.001c2.209,0,4,1.791,4,4V10z M8.168,20.1
			C7.625,19.665,6.982,19.403,7,18.901v-0.4c0-0.276-0.224-0.5-0.5-0.5S6,18.225,6,18.501v0.4c0,0.816,0.532,1.258,1.001,1.595
			C7.47,20.835,8,21.122,8,21.601c0,0.298-0.494,0.574-0.997,0.819c-0.171,0.084-0.413,0.175-0.59,0.252
			c-0.212,0.093-0.415,0.189-0.599,0.3C5.34,23.256,5,23.695,5,24.301c0,0.597,0.274,1.069,0.536,1.51
			c0.237,0.4,0.419,0.84,0.419,0.84c0.079,0.265,0.356,0.416,0.622,0.337c0.265-0.078,0.416-0.355,0.337-0.621
			c0,0-0.068-0.206-0.255-0.578c-0.176-0.352-0.401-0.716-0.529-0.983C6.041,24.616,6,24.47,6,24.301
			c0-0.496,0.762-0.646,1.505-1.011C8.244,22.929,8.984,22.467,9,21.601C9,20.897,8.598,20.444,8.168,20.1z M27.501,6H4.5
			C4.224,6,4,6.224,4,6.5S4.224,7,4.5,7h23.001c0.276,0,0.5-0.224,0.5-0.5S27.777,6,27.501,6z M26.169,20.1
			c-0.542-0.435-1.186-0.696-1.168-1.198v-0.4c0-0.276-0.224-0.5-0.5-0.5s-0.5,0.224-0.5,0.5v0.4c0,0.816,0.532,1.258,1.001,1.595
			c0.469,0.339,0.999,0.626,0.999,1.104c0,0.298-0.494,0.574-0.997,0.819c-0.171,0.084-0.413,0.175-0.59,0.252
			c-0.212,0.093-0.415,0.189-0.599,0.3c-0.475,0.284-0.814,0.724-0.814,1.329c0,0.597,0.274,1.069,0.536,1.51
			c0.237,0.4,0.419,0.84,0.419,0.84c0.079,0.265,0.356,0.416,0.621,0.337c0.266-0.078,0.417-0.355,0.338-0.621
			c0,0-0.068-0.206-0.255-0.578c-0.176-0.352-0.401-0.716-0.529-0.983c-0.089-0.188-0.13-0.335-0.13-0.504
			c0-0.496,0.762-0.646,1.505-1.011c0.739-0.361,1.479-0.823,1.495-1.689C27.001,20.897,26.599,20.444,26.169,20.1z"/>
	</g>
</g>
</svg>
