<?xml version="1.0" encoding="utf-8"?>
<!-- Generator: Adobe Illustrator 15.0.0, SVG Export Plug-In . SVG Version: 6.00 Build 0)  -->
<!DOCTYPE svg PUBLIC "-//W3C//DTD SVG 1.1//EN" "http://www.w3.org/Graphics/SVG/1.1/DTD/svg11.dtd">
<svg version="1.1" id="Layer_1" xmlns="http://www.w3.org/2000/svg" xmlns:xlink="http://www.w3.org/1999/xlink" x="0px" y="0px"
	 width="32px" height="23px" viewBox="0 0 32 23" enable-background="new 0 0 32 23" xml:space="preserve">
<g id="_x31_7">
	<g>
		<path fill-rule="evenodd" clip-rule="evenodd" d="M7,2c0.743,0,1.484,0.301,2.018,0.789C9.13,2.891,9.225,3,9.225,3
			C9.476,3.278,9.688,3.643,9.82,4l1.044-0.003c-0.149-0.559-0.426-1.096-0.784-1.529C10.315,1.623,11.082,1,12,1
			C13,1,13.815,1.732,13.964,2.689c0.017,0.105,0.087,0.506,0.079,0.633c-0.188,0.206-0.356,0.438-0.499,0.679l1.234-0.004
			C15.327,3.391,16.13,3,17.001,3c1.319,0,2.409,0.841,2.824,1.999c0,0,0.125-0.003,0.176,0.001h1.009c0-1.104,0.887-2,1.991-2
			c1.032,0,1.869,0.789,1.976,1.793c-0.356,0.326-0.634,0.742-0.801,1.206l1.098,0.002C25.618,5.399,26.313,5,27.001,5
			c0.733,0,1.375,0.411,1.723,1l1.098-0.001C29.403,4.846,28.298,4,27.001,4c-0.396,0-0.77,0.084-1.115,0.223
			C25.542,2.945,24.387,2,23.001,2c-1.202,0-2.23,0.711-2.71,1.731C19.569,2.687,18.366,2,17.001,2c-0.75,0-1.445,0.213-2.044,0.571
			C14.748,1.119,13.51,0,12,0c-1.203,0-2.232,0.712-2.71,1.733C8.64,1.276,7.855,1,7,1C5.529,1,4.243,1.813,3.548,2.997l1.23,0.002
			C5.327,2.4,6.103,2,7,2z M31.501,9.001c-0.276,0-0.217,0-0.397,0c-0.442,0.001-1.111,0.038-2.103,0.103
			c-3.23,0.21-5.333,0.897-8.101,0.897c-4.7-0.001-6.957,0.061-9.126-0.511c-3.315-1.022-4.107-1.27-6.089-1.887
			C3.96,7.066,2.673,6.664,1.819,6.397c-0.18-0.057-0.34-0.106-0.479-0.151C0.829,6.084,0.917,6.109,0.654,6.024
			C0.604,6.008,0.551,6,0.5,6C0.289,6,0.093,6.135,0.024,6.346C0.008,6.396,0,6.447,0,6.498c-0.001,0.211,0.134,0.408,0.346,0.479
			C0.608,7.061,0.41,6.998,0.992,7.184c0.94,0.301,2.575,0.818,4.693,1.479c1.981,0.618,2.773,0.836,6.089,1.858
			c0.731,0.19,1.479,0.29,2.333,0.363c1.649,0.143,3.698,0.116,6.793,0.116c2.901,0,4.87-0.682,8.101-0.892
			c0.388-0.025,0.744-0.058,1.065-0.072c0.204-0.01,0.395-0.013,0.568-0.02c0.278-0.012,0.59-0.017,0.866-0.017s0.5-0.224,0.5-0.5
			S31.777,9.001,31.501,9.001z M6.603,20.982c-0.618,0.641-1.407,1.118-1.407,1.118c-0.129,0.099-0.197,0.248-0.197,0.4
			c0,0.106,0.033,0.213,0.102,0.303C5.202,22.938,5.34,23,5.491,23c0.098-0.001,0.202-0.028,0.303-0.081
			c0.113-0.06,0.329-0.203,0.495-0.334c0.427-0.332,0.858-0.692,1.276-1.169c0.152-0.172,0.281-0.326,0.395-0.468
			c-0.556-0.065-1.129-0.21-1.129-0.21C6.759,20.818,6.683,20.899,6.603,20.982z M29.396,20.982
			c-0.108-0.111-0.208-0.221-0.302-0.327c-0.534,0.197-1.068,0.277-1.068,0.277c0.116,0.146,0.25,0.306,0.407,0.483
			c0.418,0.477,0.849,0.837,1.276,1.169c0.166,0.131,0.382,0.274,0.495,0.334c0.101,0.053,0.204,0.08,0.303,0.081
			c0.15,0,0.289-0.062,0.391-0.196c0.069-0.091,0.103-0.199,0.102-0.306c0-0.151-0.068-0.3-0.197-0.397
			C30.802,22.101,30.013,21.623,29.396,20.982z M30.001,14.301c0,0.752-0.118,1.211-0.401,1.715
			c-0.687,1.224-2.135,1.985-3.699,1.985c-6.96,0-8.845,0.001-15.805,0c-0.835,0-1.235-0.018-2.045-0.265
			c-1.199-0.365-2.265-1.087-2.985-1.943c-0.491-0.583-0.747-1.055-0.919-1.599c-0.377-1.184-0.839-3.047-1.249-4.403L1.729,9.42
			c0.507,1.503,0.997,3.628,1.463,5.075c0.814,2.534,3.716,4.506,6.509,4.506h16.2c2.793,0,5.101-1.97,5.101-4.509v-2.485l-1,0.035
			V14.301z M10.864,16.473c0.175,0.016,0.272,0.019,0.349,0.022c0.276,0,0.5-0.225,0.5-0.5c0-0.276-0.224-0.5-0.5-0.5
			c-0.048,0-0.137-0.01-0.281-0.021c-0.285-0.023-0.553-0.072-0.943-0.185c-1.049-0.303-1.858-0.842-2.429-1.418
			c-0.361-0.365-0.644-0.766-0.821-1.166c-0.062-0.141-0.093-0.239-0.095-0.236c-0.088-0.262-0.372-0.402-0.633-0.314
			s-0.402,0.371-0.314,0.633c0.028,0.084,0.061,0.164,0.098,0.251C6.559,14.857,8.695,16.272,10.864,16.473z"/>
	</g>
</g>
</svg>
