<?xml version="1.0" encoding="utf-8"?>
<!-- Generator: Adobe Illustrator 15.0.0, SVG Export Plug-In . SVG Version: 6.00 Build 0)  -->
<!DOCTYPE svg PUBLIC "-//W3C//DTD SVG 1.1//EN" "http://www.w3.org/Graphics/SVG/1.1/DTD/svg11.dtd">
<svg version="1.1" id="Layer_1" xmlns="http://www.w3.org/2000/svg" xmlns:xlink="http://www.w3.org/1999/xlink" x="0px" y="0px"
	 width="32px" height="29px" viewBox="0 0 32 29" enable-background="new 0 0 32 29" xml:space="preserve">
<g id="_x31_9">
	<g>
		<path fill-rule="evenodd" clip-rule="evenodd" d="M20.501,28H4.5C4.224,28,4,28.224,4,28.5S4.224,29,4.5,29h16.001
			c0.275,0,0.5-0.224,0.5-0.5S20.776,28,20.501,28z M14.089,7.824c0.083-0.083,0.492-0.581,0.756-0.975
			c1.125-1.68,1.711-3.248,2.008-4.927c0.069-0.396,0.111-0.791,0.127-1.181c0.007-0.161,0.008-0.207,0.005-0.242
			c0-0.276-0.225-0.5-0.5-0.5c-0.276,0-0.5,0.224-0.5,0.5c0,0.051,0,0.071-0.009,0.242c-0.022,0.397-0.073,0.815-0.157,1.259
			c-0.141,0.732-0.308,1.377-0.603,2.051c-0.269,0.615-0.442,1.041-0.975,1.876c-0.225,0.353-0.563,0.86-0.942,1.261
			c-0.174,0.215-0.137,0.528,0.077,0.704C13.584,8.062,13.895,8.019,14.089,7.824z M7.778,8.917c0.113-0.06,0.329-0.203,0.495-0.334
			C8.7,8.251,9.132,7.891,9.549,7.414c0.568-0.645,0.83-1.041,1.086-1.459c0.064-0.104,0.087-0.141,0.119-0.199
			c0.143-0.236,0.065-0.544-0.172-0.686c-0.236-0.143-0.544-0.065-0.686,0.172C9.873,5.281,9.835,5.347,9.761,5.466
			C9.457,5.952,9.116,6.434,8.587,6.98C7.969,7.621,7.18,8.099,7.18,8.099C6.96,8.266,6.918,8.582,7.085,8.802
			S7.522,9.052,7.778,8.917z M31.246,14.873c-1.341-1.321-2.853-0.798-4.522-0.62c-0.151,0.016-0.543,0.027-0.57,0.029
			c0,0-0.071,0.172-0.166,0.46c-0.081,0.245-0.176,0.553-0.176,0.553c0.221,0.003,0.844-0.025,1.054-0.05
			c0.52-0.061,1.016-0.137,1.416-0.193c0.319-0.045,0.662-0.052,0.904-0.048c0.3,0.004,0.592,0.082,0.799,0.184
			c0.465,0.226,0.909,0.612,1,1.473c0.138,1.3-0.683,2.337-1.328,2.89c-0.385,0.328-1.485,1.048-2.574,1.573
			c-0.936,0.452-2.076,0.899-2.897,1.104c0,0-0.205,0.396-0.408,0.647c-0.303,0.373-0.428,0.526-0.428,0.526
			c0.115-0.014,0.208-0.025,0.512-0.076c0.765-0.129,1.969-0.534,3.205-1.089c0.567-0.255,1.194-0.585,1.805-0.946
			c0.297-0.177,1.114-0.679,1.546-1.076c0.369-0.339,0.673-0.696,0.86-0.989c0.534-0.83,0.725-1.54,0.725-2.303
			C32.001,15.998,31.642,15.264,31.246,14.873z M23.902,17.047c0.102-1.368,0.432-2.354,0.729-3.147
			c0.128-0.342,0.248-0.561,0.342-0.896c0.018-0.072,0.027-0.146,0.027-0.223c-0.002-0.391-0.276-0.782-1.135-0.782
			c-2.26,0-6.675,0-6.675,0H7.813c0,0-4.419,0-6.679,0C0.271,11.998,0,12.395,0,12.786c0,0.074,0.01,0.146,0.027,0.217
			c0.093,0.336,0.217,0.555,0.345,0.896C0.67,14.693,1,15.679,1.102,17.047c0.049,0.749,0.055,1.361,0.317,2.573
			c0.677,3.042,3.693,6.348,9.682,6.38h2.806c5.988-0.032,9.002-3.338,9.679-6.38C23.848,18.408,23.854,17.796,23.902,17.047z
			 M23.254,14.897c-0.188,0.71-0.291,1.21-0.376,2.428c-0.042,0.571-0.056,1.088-0.292,2.168c-0.086,0.392-0.285,0.979-0.638,1.596
			c-0.225,0.393-0.516,0.79-0.867,1.183c-0.493,0.55-1.137,1.065-1.892,1.486C17.824,24.52,16.08,25,13.703,25H11.3
			c-2.376,0-4.12-0.48-5.485-1.242c-0.755-0.421-1.398-0.937-1.892-1.486C3.57,21.879,3.28,21.48,3.056,21.088
			c-0.353-0.617-0.552-1.203-0.638-1.595c-0.236-1.08-0.25-1.597-0.292-2.168c-0.084-1.218-0.188-1.718-0.376-2.428
			c-0.062-0.229-0.183-0.633-0.279-0.904C1.38,13.708,1.269,13.468,1.217,13.3c-0.06-0.195-0.115-0.301,0.229-0.301
			c2.028,0,6.909,0,6.909,0h8.293c0,0,4.881,0,6.909,0c0.344,0,0.287,0.105,0.229,0.299c-0.052,0.17-0.162,0.41-0.253,0.695
			C23.437,14.265,23.315,14.668,23.254,14.897z M16.56,8.183c-0.165,0.215-0.141,0.518,0.068,0.699
			c0.208,0.181,0.527,0.146,0.708-0.062c0,0,0.257-0.264,0.448-0.561c0.29-0.445,0.567-0.901,0.803-1.489
			c0.093-0.229,0.168-0.43,0.23-0.611c0.067-0.2,0.091-0.27,0.163-0.522c0.075-0.266-0.078-0.542-0.344-0.618
			c-0.266-0.075-0.543,0.078-0.618,0.344s-0.091,0.312-0.13,0.43c-0.182,0.553-0.573,1.461-1.068,2.081
			C16.729,7.987,16.646,8.07,16.56,8.183z"/>
	</g>
</g>
</svg>
