<?xml version="1.0" encoding="utf-8"?>
<!-- Generator: Adobe Illustrator 15.0.0, SVG Export Plug-In . SVG Version: 6.00 Build 0)  -->
<!DOCTYPE svg PUBLIC "-//W3C//DTD SVG 1.1//EN" "http://www.w3.org/Graphics/SVG/1.1/DTD/svg11.dtd">
<svg version="1.1" id="Layer_1" xmlns="http://www.w3.org/2000/svg" xmlns:xlink="http://www.w3.org/1999/xlink" x="0px" y="0px"
	 width="32px" height="30px" viewBox="0 0 32 30" enable-background="new 0 0 32 30" xml:space="preserve">
<g id="_x32_0">
	<g>
		<path fill-rule="evenodd" clip-rule="evenodd" d="M6.95,3.993C7.196,4.838,7.499,5.877,7.826,7h1.042
			C8.415,5.445,8.005,4.036,7.716,3.043C7.34,1.854,6.494,1.542,5.632,1.329C5.473,1.29,0.686,0.11,0.686,0.11L0.24,0L0,0.974
			l0.392,0.096c0,0,3.72,0.915,4.153,1.024C6.495,2.585,6.52,2.479,6.95,3.993z M10.113,12.907c-0.195-0.195-0.512-0.195-0.707,0
			s-0.195,0.513,0,0.708l2.121,2.121c0.195,0.195,0.512,0.195,0.707,0s0.195-0.512,0-0.707L10.113,12.907z M25.5,3
			c-3.072,0-5.641,2.135-6.319,5h1.044c0.217-0.744,0.579-1.425,1.062-2.006L23.293,8h0.219c0.171-0.227,0.373-0.427,0.61-0.584
			l-2.128-2.129c0.83-0.693,1.867-1.134,3.006-1.241V7.05C25.162,7.018,25.328,7,25.5,7s0.338,0.018,0.5,0.05V4.045
			c1.138,0.107,2.175,0.548,3.006,1.241l-2.129,2.129c0.281,0.186,0.521,0.426,0.707,0.708l2.129-2.129
			C30.406,6.827,30.871,7.857,30.975,9h-3.025C27.982,9.162,28,9.329,28,9.5s-0.018,0.338-0.051,0.5h3.025
			c-0.104,1.143-0.568,2.173-1.262,3.006l-2.129-2.129c-0.186,0.281-0.426,0.521-0.707,0.707l2.129,2.128
			c-0.831,0.693-1.868,1.135-3.006,1.241V11.95C25.838,11.982,25.672,12,25.5,12c-0.104,0-0.203-0.019-0.304-0.031L25,12.166v2.789
			c-0.77-0.072-1.484-0.308-2.129-0.66l-0.75,0.75c0.985,0.602,2.14,0.956,3.379,0.956c3.59,0,6.5-2.911,6.5-6.501S29.09,3,25.5,3z
			 M19.5,29.001c0,0-1.558,0-3.5,0h-1c-0.277,0-0.5-0.224-0.5-0.5s0-0.116,0-0.5v-6.859c0.068-0.041,0.141-0.075,0.197-0.131
			c0.187-0.182,0.086-0.086,0.501-0.502c2.411-2.41,10.612-10.613,10.651-10.653c0.049-0.047,0.086-0.103,0.112-0.167
			c0.021-0.052,0.029-0.107,0.032-0.162C25.995,9.518,26,9.51,26,9.5v0c0-0.065-0.014-0.13-0.039-0.192
			c-0.018-0.043-0.047-0.08-0.076-0.116c-0.012-0.015-0.018-0.033-0.031-0.046c-0.023-0.023-0.053-0.035-0.079-0.053
			c-0.027-0.018-0.051-0.041-0.081-0.054C25.63,9.012,25.562,9,25.495,9H2.503C2.436,9,2.368,9.013,2.305,9.039
			C2.296,9.043,2.29,9.051,2.281,9.055c-0.048,0.023-0.096,0.05-0.136,0.09C2.112,9.178,2.094,9.217,2.072,9.255
			C2.062,9.273,2.046,9.287,2.038,9.307C1.987,9.43,1.987,9.568,2.037,9.69c0.024,0.058,0.06,0.109,0.102,0.153
			C2.142,9.847,2.142,9.85,2.145,9.853l0.001,0.001c0.018,0.018,8.241,8.242,10.655,10.655c0.415,0.416,0.313,0.319,0.499,0.501
			c0.057,0.056,0.13,0.091,0.199,0.132v6.859c0,0.384,0,0.224,0,0.5s-0.224,0.5-0.5,0.5h-1c-1.942,0-3.5,0-3.5,0
			c-0.276,0-0.5,0.224-0.5,0.5s0.224,0.5,0.5,0.5H19.5c0.275,0,0.5-0.224,0.5-0.5S19.775,29.001,19.5,29.001z M14,20.293l-0.201-0.2
			C12.22,18.515,5.999,12.292,3.707,10h20.585c-2.293,2.293-8.521,8.522-10.095,10.096C14.119,20.175,14,20.293,14,20.293z
			 M7.639,11.14c-0.195,0.195-0.195,0.512,0,0.707s0.512,0.195,0.707,0s0.195-0.512,0-0.707S7.834,10.944,7.639,11.14z"/>
	</g>
</g>
</svg>
