<?xml version="1.0" encoding="utf-8"?>
<!-- Generator: Adobe Illustrator 15.0.0, SVG Export Plug-In . SVG Version: 6.00 Build 0)  -->
<!DOCTYPE svg PUBLIC "-//W3C//DTD SVG 1.1//EN" "http://www.w3.org/Graphics/SVG/1.1/DTD/svg11.dtd">
<svg version="1.1" id="Layer_1" xmlns="http://www.w3.org/2000/svg" xmlns:xlink="http://www.w3.org/1999/xlink" x="0px" y="0px"
	 width="32px" height="24px" viewBox="0 0 32 24" enable-background="new 0 0 32 24" xml:space="preserve">
<g id="_x30_7">
	<g>
		<path fill-rule="evenodd" clip-rule="evenodd" d="M1.582,7.209c0.101-0.818,0.19-1.646,0.28-2.239
			c0.047-0.307,0.1-0.771,0.317-1.158c0.154-0.273,0.371-0.45,0.741-0.662c0.37-0.211,0.627-0.344,1.035-0.507
			c0.334-0.134,0.771-0.286,1.459-0.48C7.782,1.493,11.399,1,16.001,1c4.596,0,8.22,0.493,10.588,1.163
			c0.686,0.193,1.12,0.347,1.453,0.479c0.407,0.164,0.664,0.298,1.038,0.507c0.372,0.21,0.588,0.39,0.742,0.663
			c0.217,0.387,0.27,0.853,0.317,1.161c0.09,0.594,0.179,1.419,0.278,2.235c0.141,1.147,0.283,2.334,0.369,3.068
			c0.429,0.251,0.8,0.526,1.107,0.827c-0.179-1.5-0.539-4.52-0.736-6.096c-0.062-0.486-0.218-1.527-0.672-2.023
			C28.913,1.268,23.435,0,16.001,0C8.544,0,3.054,1.275,1.501,3C1.064,3.485,0.904,4.516,0.845,4.996
			c-0.197,1.574-0.56,4.605-0.738,6.109c0.308-0.298,0.679-0.571,1.106-0.821C1.299,9.551,1.441,8.359,1.582,7.209z M4.5,23h-3
			C1.224,23,1,23.225,1,23.5C1,23.777,1.224,24,1.5,24h3C4.776,24,5,23.777,5,23.5C5,23.225,4.776,23,4.5,23z M30.501,23h-3
			c-0.276,0-0.5,0.225-0.5,0.5c0,0.277,0.224,0.5,0.5,0.5h3c0.275,0,0.5-0.223,0.5-0.5C31.001,23.225,30.776,23,30.501,23z
			 M31.001,14.277V14c0-1.295-1.159-2.217-3.187-2.848l0.155-1.484c0.115-1.093-1.636-2.183-5.261-2.563
			C22.032,7.033,21.415,7,20.857,6.999c-2.434,0-3.734,0.631-3.827,1.52l-0.156,1.488C16.583,10.004,16.298,10,16.001,10
			s-0.583,0.004-0.874,0.006L14.97,8.519C14.876,7.63,13.576,6.999,11.144,7C10.586,7,9.968,7.033,9.29,7.104
			C5.665,7.485,3.915,8.576,4.029,9.668l0.157,1.484C2.159,11.783,1,12.705,1,14v0.277C0.405,14.624,0,15.263,0,16v3
			c0,1.105,0.896,2,2,2h28.001c1.104,0,2-0.895,2-2v-3C32.001,15.263,31.596,14.624,31.001,14.277z M17.982,9.028
			c0.017-0.152,0.023-0.359,0.139-0.476c0.151-0.153,0.451-0.26,0.771-0.35c0.761-0.213,2.119-0.271,3.713-0.104
			c1.589,0.167,2.895,0.505,3.601,0.871c0.297,0.155,0.571,0.321,0.688,0.503c0.09,0.139,0.055,0.343,0.039,0.496l-0.096,0.915
			c-2.264-0.539-5.344-0.802-8.959-0.867L17.982,9.028z M5.104,9.475C5.22,9.293,5.491,9.127,5.786,8.973
			C6.485,8.606,7.803,8.267,9.396,8.1c1.589-0.167,2.937-0.108,3.703,0.104c0.323,0.09,0.626,0.195,0.778,0.349
			c0.117,0.117,0.125,0.324,0.142,0.477l0.104,0.99c-3.615,0.065-6.695,0.328-8.959,0.867L5.067,9.97
			C5.052,9.817,5.016,9.613,5.104,9.475z M2.453,13.115c0.188-0.188,0.494-0.368,0.811-0.53C5.238,11.58,9.399,11,16.001,11
			c6.597,0,10.76,0.58,12.735,1.585c0.316,0.162,0.623,0.342,0.812,0.53c0.273,0.271,0.453,0.486,0.453,0.885H2
			C2,13.602,2.18,13.387,2.453,13.115z M31.001,19c0,0.553-0.448,1-1,1H2c-0.552,0-1-0.447-1-1v-3c0-0.553,0.448-1,1-1h28.001
			c0.552,0,1,0.447,1,1V19z"/>
	</g>
</g>
</svg>
