<?xml version="1.0" encoding="utf-8"?>
<!-- Generator: Adobe Illustrator 15.0.0, SVG Export Plug-In . SVG Version: 6.00 Build 0)  -->
<!DOCTYPE svg PUBLIC "-//W3C//DTD SVG 1.1//EN" "http://www.w3.org/Graphics/SVG/1.1/DTD/svg11.dtd">
<svg version="1.1" id="Layer_1" xmlns="http://www.w3.org/2000/svg" xmlns:xlink="http://www.w3.org/1999/xlink" x="0px" y="0px"
	 width="32px" height="17px" viewBox="0 0 32 17" enable-background="new 0 0 32 17" xml:space="preserve">
<g id="_x33_3_1_">
	<g>
		<path fill-rule="evenodd" clip-rule="evenodd" d="M1,8.5c0-0.653,0.417-1.208,0.999-1.414l0,1.415l0-2.451
			C0.858,6.282,0,7.291,0,8.5s0.858,2.219,2,2.45V9.915C1.418,9.709,1,9.153,1,8.5z M4.5,2C3.672,2,3,2.672,3,3.5v10
			C3,14.328,3.672,15,4.5,15S6,14.328,6,13.5v-10C6,2.672,5.328,2,4.5,2z M5,13.5C5,13.776,4.776,14,4.5,14S4,13.776,4,13.5v-10
			C4,3.224,4.224,3,4.5,3S5,3.224,5,3.5V13.5z M30.002,6.05v1.036c0.582,0.206,0.999,0.761,0.999,1.414s-0.418,1.209-1,1.415v1.035
			c1.141-0.231,2-1.241,2-2.45S31.143,6.282,30.002,6.05z M8.5,0C7.672,0,7,0.672,7,1.5v14C7,16.328,7.672,17,8.5,17
			s1.5-0.672,1.5-1.5v-14C10,0.672,9.328,0,8.5,0z M9,15.5C9,15.776,8.776,16,8.5,16S8,15.776,8,15.5v-14C8,1.224,8.224,1,8.5,1
			S9,1.224,9,1.5V15.5z M27.501,2c-0.828,0-1.5,0.672-1.5,1.5v10c0,0.828,0.672,1.5,1.5,1.5s1.5-0.672,1.5-1.5v-10
			C29.001,2.672,28.329,2,27.501,2z M28.001,13.5c0,0.276-0.224,0.5-0.5,0.5s-0.5-0.224-0.5-0.5v-10c0-0.276,0.224-0.5,0.5-0.5
			s0.5,0.224,0.5,0.5V13.5z M23.501,0c-0.828,0-1.5,0.672-1.5,1.5v14c0,0.828,0.672,1.5,1.5,1.5s1.5-0.672,1.5-1.5v-14
			C25.001,0.672,24.329,0,23.501,0z M24.001,15.5c0,0.276-0.224,0.5-0.5,0.5s-0.5-0.224-0.5-0.5v-14c0-0.276,0.224-0.5,0.5-0.5
			s0.5,0.224,0.5,0.5V15.5z M12,8h8.001V7H12V8z M12,10h8.001V9H12V10z"/>
	</g>
</g>
</svg>
