<?xml version="1.0" encoding="utf-8"?>
<!-- Generator: Adobe Illustrator 15.0.0, SVG Export Plug-In . SVG Version: 6.00 Build 0)  -->
<!DOCTYPE svg PUBLIC "-//W3C//DTD SVG 1.1//EN" "http://www.w3.org/Graphics/SVG/1.1/DTD/svg11.dtd">
<svg version="1.1" id="Layer_1" xmlns="http://www.w3.org/2000/svg" xmlns:xlink="http://www.w3.org/1999/xlink" x="0px" y="0px"
	 width="32px" height="24px" viewBox="0 0 32 24" enable-background="new 0 0 32 24" xml:space="preserve">
<g id="_x31_4">
	<g>
		<path fill-rule="evenodd" clip-rule="evenodd" d="M14.008,2.445c0-0.675-1.803-2.444-2.668-2.444
			c-0.736,0-1.333,0.547-1.333,1.222v8.556c0,0.675,0.597,1.222,1.333,1.222c0.868,0,2.668-1.769,2.668-2.444V7.749l0.001,0V6.594
			c0,0,0,0-0.001-0.001v-2.23c0,0,0,0,0.001-0.001V3.143l-0.001,0V2.445z M12.865,8.69c-0.31,0.431-0.714,0.764-0.863,0.878
			c-0.278,0.213-0.555,0.428-0.728,0.421c-0.139-0.005-0.268-0.081-0.268-0.323V1.337c0-0.242,0.129-0.318,0.268-0.323
			c0.173-0.007,0.449,0.208,0.728,0.421c0.149,0.114,0.554,0.447,0.863,0.878c0.167,0.231,0.143,0.433,0.142,0.609v5.159
			C13.008,8.257,13.032,8.458,12.865,8.69z M6.507,1.001H6.295c-0.741-0.007-1.129-1.009-1.888-1
			C3.65-0.001,3.209,0.471,2.965,0.857C2.881,0.99,2.755,1.279,2.661,1.477C2.544,1.72,2.475,1.939,2.21,1.967
			c-0.094,0.01-0.175,0.001-0.344-0.023C1.654,1.913,1.36,1.835,1.145,1.759C0.766,1.625,0.642,1.587,0.642,1.587
			C0.377,1.508,0.099,1.659,0.021,1.924c-0.078,0.266,0.072,0.543,0.338,0.622c0,0,0.503,0.192,0.954,0.305
			c0.498,0.123,1.082,0.15,1.082,0.15c0.677-0.009,0.925-0.533,1.2-1.159c0.244-0.555,0.412-0.791,0.669-0.794
			c0.274-0.003,0.501,0.277,0.849,0.538C5.401,1.803,5.831,2,6.207,2.001h0.3c0.276,0,0.5-0.224,0.5-0.5S6.783,1.001,6.507,1.001z
			 M6.507,5.001H6.295c-0.741-0.007-1.129-1.009-1.888-1C3.65,4,3.209,4.471,2.965,4.858C2.881,4.991,2.755,5.28,2.661,5.477
			C2.544,5.72,2.475,5.94,2.21,5.967c-0.094,0.01-0.175,0.001-0.344-0.023C1.654,5.914,1.36,5.835,1.145,5.759
			C0.766,5.625,0.642,5.587,0.642,5.587C0.377,5.508,0.099,5.66,0.021,5.924C-0.058,6.19,0.093,6.467,0.358,6.546
			c0,0,0.503,0.192,0.954,0.305c0.498,0.123,1.082,0.15,1.082,0.15c0.677-0.009,0.925-0.533,1.2-1.159
			c0.244-0.555,0.412-0.791,0.669-0.794c0.274-0.003,0.501,0.277,0.849,0.538C5.401,5.803,5.831,6,6.207,6.001h0.3
			c0.276,0,0.5-0.224,0.5-0.5S6.783,5.001,6.507,5.001z M26.995,5.512v-2c0-0.276-0.224-0.5-0.5-0.5s-0.5,0.225-0.5,0.5v2
			c0,0.275,0.224,0.499,0.5,0.499S26.995,5.788,26.995,5.512z M28.995,5.512v-2c0-0.276-0.224-0.5-0.5-0.5s-0.5,0.225-0.5,0.5v2
			c0,0.275,0.224,0.499,0.5,0.499S28.995,5.788,28.995,5.512z M25.932,14.666c-0.021,0.281-0.116,1.145-0.116,1.578
			c0,0.826-0.196,2.166-0.32,2.682c-0.301,1.252-1.172,4.666-3.449,3.992c-0.901-0.289-1.218-0.885-0.932-1.281
			c0.188-0.262,0.434-0.596,0.577-0.883c0.524-1.047,0.523-1.936,0.875-3.135c0.304-1.037,1.021-2.273,1.222-2.707
			c0.304-0.661,0.677-1.613,0.773-2.488c-0.314-0.028-0.634-0.06-0.978-0.105c-0.015,0.083-0.026,0.161-0.045,0.25
			c-0.302,1.453-0.641,1.763-1.531,3.695c-0.93,2.018-0.542,3.355-1.613,4.609c-0.817,1.047-0.328,2.459,1.294,2.984
			c3.656,1.072,4.75-4.064,5.032-6.094c0.079-0.572,0.073-1.92,0.237-3.398c0.027-0.25,0.155-1.385,0.237-1.769
			c0.016-0.073,0.035-0.138,0.052-0.21c-0.342,0.048-0.69,0.078-1.044,0.093C26.076,13.191,25.962,14.161,25.932,14.666z
			 M24.995,5.512v-2c0-0.276-0.224-0.5-0.5-0.5s-0.5,0.225-0.5,0.5v2c0,0.275,0.224,0.499,0.5,0.499S24.995,5.788,24.995,5.512z
			 M25.157,0c-0.164,0-0.328,0.002-0.491,0.013c-2.617,0.173-4.89,0.797-7.22,1.609c-0.309,0.107-0.835,0.287-1.438,0.531v1.085
			c0.304-0.132,0.624-0.262,0.97-0.387c0.713-0.259,1.521-0.544,2.698-0.895c1.71-0.511,3.107-0.787,4.991-0.939
			c1.07-0.086,2.449,0.114,3.376,0.459c0.896,0.333,1.547,0.783,2.01,1.31c0.821,0.936,0.955,1.999,0.955,2.721
			c0,0.789-0.226,1.612-0.992,2.227c-0.47,0.377-0.879,0.668-1.321,0.897c-0.593,0.308-1.23,0.505-2.008,0.651
			c-0.427,0.081-1.229,0.142-1.957,0.112c-0.832-0.033-1.095-0.081-1.362-0.226c-0.812-0.437-1.434-0.505-2.457-0.588
			c-1.551-0.125-2.201-0.127-3.771-0.627c-0.408-0.13-0.779-0.265-1.131-0.399v1.067c0.047,0.017,0.09,0.035,0.137,0.052
			c0.085,0.03,0.165,0.056,0.249,0.084c0.215,0.073,0.434,0.144,0.656,0.213c0.628,0.191,1.157,0.324,1.428,0.373
			c0.562,0.102,1.369,0.163,2.667,0.266c0.633,0.046,1.442,0.16,1.997,0.654c0.773,0.091,1.48,0.144,2.05,0.144
			c1.289,0,2.495-0.247,3.523-0.677c0.483-0.201,0.919-0.474,1.313-0.75c0.026-0.019,0.049-0.035,0.076-0.055
			c0.237-0.175,0.527-0.382,0.787-0.637c0.153-0.15,1.118-0.988,1.117-2.781C32.007,1.7,28.704,0.002,25.157,0z M6.507,9.001H6.295
			c-0.741-0.007-1.129-1.009-1.888-1C3.65,8,3.209,8.471,2.965,8.858C2.881,8.991,2.755,9.28,2.661,9.477
			C2.544,9.72,2.475,9.94,2.21,9.967c-0.094,0.01-0.175,0.001-0.344-0.023C1.654,9.914,1.36,9.835,1.145,9.759
			C0.766,9.625,0.642,9.587,0.642,9.587C0.377,9.508,0.099,9.66,0.021,9.924c-0.078,0.266,0.072,0.543,0.338,0.622
			c0,0,0.503,0.192,0.954,0.305c0.498,0.123,1.082,0.15,1.082,0.15c0.677-0.009,0.925-0.533,1.2-1.159
			c0.244-0.555,0.412-0.791,0.669-0.794c0.274-0.003,0.501,0.277,0.849,0.538C5.401,9.803,5.831,10,6.207,10.001h0.3
			c0.276,0,0.5-0.224,0.5-0.5S6.783,9.001,6.507,9.001z"/>
	</g>
</g>
</svg>
