<?xml version="1.0" encoding="utf-8"?>
<!-- Generator: Adobe Illustrator 15.0.0, SVG Export Plug-In . SVG Version: 6.00 Build 0)  -->
<!DOCTYPE svg PUBLIC "-//W3C//DTD SVG 1.1//EN" "http://www.w3.org/Graphics/SVG/1.1/DTD/svg11.dtd">
<svg version="1.1" id="Layer_1" xmlns="http://www.w3.org/2000/svg" xmlns:xlink="http://www.w3.org/1999/xlink" x="0px" y="0px"
	 width="32px" height="21px" viewBox="0 0 32 21" enable-background="new 0 0 32 21" xml:space="preserve">
<g id="_x32_2">
	<g>
		<path fill-rule="evenodd" clip-rule="evenodd" d="M22.5,20.002h-22c-0.276,0-0.5,0.224-0.5,0.5s0.224,0.5,0.5,0.5h22
			c0.276,0,0.5-0.224,0.5-0.5S22.776,20.002,22.5,20.002z M10.183,5.985c0.006-0.066,0.018-0.147,0.042-0.229
			c0.032-0.112,0.074-0.239,0.131-0.362c0.079-0.166,0.188-0.323,0.298-0.442c0.075-0.08,0.118-0.107,0.218-0.143l0.672-0.246
			c0.174-0.062,0.173-0.064,0.208,0.031l0.231,0.635c0.311-0.121,0.622-0.241,0.935-0.354l-0.261-0.717
			c-0.148-0.406-0.532-0.66-0.942-0.658c-0.113,0-0.228,0.02-0.339,0.061l-0.94,0.342C9.665,4.183,8.972,5.661,9.237,6.444
			C9.55,6.288,9.863,6.132,10.183,5.985z M30.098,0c-1.192,0-2.739,0.388-4.055,2.485c-0.01,0.017-0.065,0.109-0.096,0.16
			c0.353,0.096,0.626,0.267,0.844,0.536v0c0.014-0.021,0.109-0.183,0.123-0.205c0.449-0.712,0.969-1.226,1.48-1.532
			C29.041,1.057,29.752,1,29.922,1c0.371,0,0.645,0.07,0.896,0.132c0.454,0.112,0.718,0.197,1.003,0.241
			c0.052,0.008,0.122,0.023,0.18,0.027l0.001-1.002C31.405,0.265,30.604,0,30.098,0z M22.264,7.662
			c-0.615-0.309-1.442-0.447-2.413-0.423c-1.222,0.03-2.815,0.309-4.724,0.764c-0.984,0.234-2.128,0.59-2.827,0.861
			c-1.273,0.497-2.121,0.932-2.964,1.524c-0.752,0.527-1.175,0.969-1.534,1.494c-0.499,0.728-0.699,1.515-0.561,2.276
			c0.086,0.477,0.357,0.865,0.569,1.032c0.446,0.352,0.888,0.523,1.551,0.628c0.314,0.05,0.653,0.091,1.016,0.111
			c1.564,0.087,3.635,0.071,5.509,0.071h1.292c3.12,0.003,4.081-0.225,4.768-0.503c0.816-0.332,1.404-0.968,1.658-1.393
			c0.361-0.607,0.531-1.304,0.566-1.977c0.029-0.552-0.027-1.133-0.125-1.725C23.804,8.949,23.288,8.178,22.264,7.662z
			 M21.547,14.578c-0.616,0.258-1.652,0.424-4.347,0.424h-1.1c-6.563,0-7.9,0.042-7.9-1.3c0-1.897,2.98-3.764,7.382-4.778
			c4.401-1.016,6.86-1.105,7.371,1.14C23.311,11.637,23.473,13.773,21.547,14.578z M26,4.857c-0.322-0.607-0.768-0.855-1.628-0.855
			c-0.378,0-0.836,0.051-1.399,0.135C19.484,4.658,13.552,5.656,9,8.144c-3.945,2.155-6.494,5.872-7,6.572
			c-0.108,0.148-0.53,0.749-1,1.096c-0.565,0.415-1,0.646-1,1.091c0,1.092,0.749,1.1,2,1.1h20c1.979,0,6-2.016,6-3.286
			c0-1.096-1.367-1.625-2.01-5.554C25.597,6.756,26.438,5.679,26,4.857z M26.91,14.443c0.066,0.133,0.096,0.219,0.008,0.329
			c-0.151,0.188-0.463,0.429-0.627,0.553c-0.426,0.322-1.123,0.703-1.714,0.962c-0.272,0.12-0.548,0.227-0.812,0.322
			c-0.584,0.211-1.008,0.313-1.395,0.358c-0.278,0.032-0.537,0.034-0.822,0.034H4.227c-0.737,0-1.827,0-1.827,0l-1.048-0.007
			c0,0-0.096,0.012-0.096-0.05c0-0.086,0.04-0.115,0.254-0.268c0.232-0.164,0.443-0.354,0.599-0.516
			c0.458-0.477,0.672-0.836,0.957-1.222c0.41-0.554,0.912-1.186,1.013-1.306c0.603-0.713,1.645-1.899,3.017-2.997
			c1.274-1.019,1.96-1.412,3.173-2.023c1.151-0.58,2.521-1.101,3.823-1.52c0.979-0.315,1.918-0.566,2.691-0.756
			c2.193-0.538,4.07-0.867,5.542-1.087c0.542-0.081,0.89-0.148,1.214-0.185c0.335-0.037,0.505-0.056,0.848-0.062
			C24.76,5,24.963,5.049,25.092,5.279c0.098,0.174-0.048,0.795-0.109,1.264c-0.04,0.296-0.088,0.637-0.098,1.037
			c-0.011,0.473,0.002,1.033,0.111,1.712c0.168,1.033,0.42,2.002,0.682,2.699c0.193,0.518,0.375,0.915,0.479,1.114
			C26.562,13.88,26.737,14.103,26.91,14.443z M17.5,13.002h-5c-0.276,0-0.5,0.224-0.5,0.5s0.224,0.5,0.5,0.5h5
			c0.276,0,0.5-0.224,0.5-0.5S17.776,13.002,17.5,13.002z"/>
	</g>
</g>
</svg>
