<?xml version="1.0" encoding="utf-8"?>
<!-- Generator: Adobe Illustrator 15.0.0, SVG Export Plug-In . SVG Version: 6.00 Build 0)  -->
<!DOCTYPE svg PUBLIC "-//W3C//DTD SVG 1.1//EN" "http://www.w3.org/Graphics/SVG/1.1/DTD/svg11.dtd">
<svg version="1.1" id="Layer_1" xmlns="http://www.w3.org/2000/svg" xmlns:xlink="http://www.w3.org/1999/xlink" x="0px" y="0px"
	 width="18px" height="32px" viewBox="0 0 18 32" enable-background="new 0 0 18 32" xml:space="preserve">
<g id="_x32_7">
	<g>
		<path fill-rule="evenodd" clip-rule="evenodd" d="M4,31.501c0,0.276,0.224,0.5,0.5,0.5s0.5-0.224,0.5-0.5v-1.5H4V31.501z M5,6H4v4
			h1V6z M13.001,10h1V6h-1V10z M15.001,11H3c-1.657,0-3,1.343-3,3v12.001c0,1.657,1.343,3,3,3h12.001c1.657,0,3-1.343,3-3V14
			C18.001,12.343,16.658,11,15.001,11z M14.001,28.001H4v-7c0-1.104,0.896-2,2-2h6.001c1.104,0,2,0.896,2,2V28.001z M17.001,26.001
			c0,1.104-0.896,2-2,2v-7c0-1.657-1.343-3-3-3H6c-1.657,0-3,1.343-3,3v7c-1.104,0-2-0.896-2-2V14c0-1.104,0.896-2,2-2h12.001
			c1.104,0,2,0.896,2,2V26.001z M14.501,14H3.5C3.224,14,3,14.224,3,14.501c0,0.275,0.224,0.5,0.5,0.5h11.001
			c0.276,0,0.5-0.225,0.5-0.5C15.001,14.224,14.777,14,14.501,14z M13.001,31.501c0,0.276,0.224,0.5,0.5,0.5s0.5-0.224,0.5-0.5v-1.5
			h-1V31.501z M5,3c0-1.104,0.896-2,2-2h4.001c1.104,0,2,0.896,2,2v2h1V3c0-1.657-1.343-3-3-3H7C5.343,0,4,1.343,4,3v2h1V3z"/>
	</g>
</g>
</svg>
