<?xml version="1.0" encoding="utf-8"?>
<!-- Generator: Adobe Illustrator 15.0.0, SVG Export Plug-In . SVG Version: 6.00 Build 0)  -->
<!DOCTYPE svg PUBLIC "-//W3C//DTD SVG 1.1//EN" "http://www.w3.org/Graphics/SVG/1.1/DTD/svg11.dtd">
<svg version="1.1" id="Layer_1" xmlns="http://www.w3.org/2000/svg" xmlns:xlink="http://www.w3.org/1999/xlink" x="0px" y="0px"
	 width="32px" height="27px" viewBox="0 0 32 27" enable-background="new 0 0 32 27" xml:space="preserve">
<g id="_x31_0">
	<g>
		<path fill-rule="evenodd" clip-rule="evenodd" d="M19.875,19h-7.75c-0.276,0-0.5,0.223-0.5,0.5c0,0.275,0.224,0.5,0.5,0.5h7.75
			c0.275,0,0.5-0.225,0.5-0.5C20.375,19.223,20.15,19,19.875,19z M18.812,21h-5.625c-0.276,0-0.5,0.223-0.5,0.5
			c0,0.275,0.224,0.5,0.5,0.5h5.625c0.275,0,0.5-0.225,0.5-0.5C19.312,21.223,19.088,21,18.812,21z M7,25.5
			C7,25.775,6.775,26,6.5,26h-1C5.223,26,5,25.775,5,25.5V25H4.001v1c0,0.553,0.448,1.002,1,1.002h2c0.552,0,1-0.449,1-1.002v-1H7
			V25.5z M20.5,17h-9c-0.276,0-0.5,0.223-0.5,0.5c0,0.275,0.224,0.5,0.5,0.5h9c0.275,0,0.5-0.225,0.5-0.5
			C21,17.223,20.775,17,20.5,17z M31.686,6.218L16.851,0.224c-0.047-0.019-0.141-0.055-0.192-0.072C16.483,0.09,16.211,0,16,0
			c-0.213,0-0.487,0.09-0.663,0.152c-0.043,0.015-0.12,0.043-0.188,0.071L0.313,6.218C0.118,6.296,0,6.483,0,6.682
			c0,0.062,0.012,0.125,0.037,0.187c0.104,0.257,0.395,0.38,0.651,0.276c0,0,12.747-5.149,14.609-5.902
			c0.147-0.06,0.238-0.092,0.312-0.121c0.136-0.056,0.24-0.1,0.39-0.1c0.148,0,0.251,0.044,0.387,0.098
			c0.076,0.029,0.167,0.063,0.312,0.122c1.853,0.749,14.612,5.903,14.612,5.903c0.256,0.104,0.548-0.02,0.651-0.276
			c0.023-0.062,0.036-0.125,0.035-0.187C31.998,6.483,31.881,6.296,31.686,6.218z M28.5,13h-2c-0.277,0-0.5,0.223-0.5,0.5
			c0,0.275,0.223,0.5,0.5,0.5h2c0.275,0,0.5-0.224,0.5-0.5C29,13.223,28.775,13,28.5,13z M27.938,16.799
			c-0.402-0.303-0.831-0.699-1.132-1.299c-1.191-2.503-1.906-4.201-1.906-4.201c-1.1-2.2-1.796-2.073-3.503-2.162
			C21.396,9.138,18.498,9,16,9c-2.504,0-5.4,0.138-5.4,0.138c-1.682,0.089-2.401-0.037-3.5,2.162c0,0-0.766,1.699-1.9,4.201
			c-0.303,0.6-0.703,1-1.1,1.299c-1.097,0.701-1.1,1.4-1.1,1.4v2.9c0,1.182,0.819,2.898,3.008,2.898h19.99
			C28.161,23.975,29,22.281,29,21.1v-2.9C29,18.199,28.934,17.5,27.938,16.799z M7.841,12.098c0.866-2,1.358-1.89,2.911-1.967
			c0,0,2.936-0.131,5.248-0.131c2.306,0,5.213,0.131,5.213,0.131c1.574,0.077,2.089-0.034,2.959,1.975c0,0,0.311,0.727,0.812,1.837
			c-1.349-0.142-5.164-0.505-8.985-0.505c-3.827,0-7.649,0.364-8.992,0.506C7.511,12.831,7.841,12.098,7.841,12.098z M27.999,20.834
			c0,1.023-0.359,2.145-2.356,2.164H6.362c-2.021,0-2.363-1.141-2.363-2.164c0,0,0-1.893,0-2.389c0-0.498,0.767-0.818,1.138-1.211
			c0.061-0.063,0.119-0.125,0.177-0.186c0.06,0.048,0.118,0.095,0.167,0.131c0.375,0.277,0.872,0.621,1.452,0.877
			c0.981,0.436,1.449,0.533,2.084,0.689c0.199,0.049,0.364,0.088,0.364,0.088c0.271,0.055,0.523-0.084,0.598-0.35
			s-0.079-0.541-0.344-0.617c0,0-0.162-0.045-0.382-0.096c-0.656-0.15-1.405-0.359-2.196-0.762
			c-0.333-0.168-0.791-0.504-1.115-0.755c0.048-0.083,0.098-0.166,0.14-0.261c0.158-0.349,0.307-0.679,0.451-0.998
			c0.338-0.039,4.896-0.559,9.467-0.559c4.572,0,9.131,0.52,9.467,0.559c0.148,0.319,0.303,0.65,0.469,1
			c0.042,0.091,0.092,0.17,0.14,0.251c-0.328,0.251-0.798,0.594-1.134,0.763c-0.791,0.402-1.541,0.611-2.196,0.762
			c-0.221,0.051-0.382,0.096-0.382,0.096c-0.266,0.076-0.42,0.352-0.344,0.617c0.074,0.266,0.326,0.404,0.598,0.35
			c0,0,0.164-0.039,0.363-0.088c0.635-0.156,1.103-0.254,2.084-0.689c0.58-0.256,1.078-0.6,1.453-0.877
			c0.055-0.041,0.122-0.094,0.189-0.148c0.068,0.068,0.136,0.138,0.205,0.207C27.289,17.617,28,17.947,28,18.449
			C28,18.953,27.999,20.834,27.999,20.834z M5.5,14C5.775,14,6,13.776,6,13.5C6,13.223,5.775,13,5.5,13h-2C3.223,13,3,13.223,3,13.5
			C3,13.776,3.223,14,3.5,14H5.5z M27,25.5c0,0.275-0.225,0.5-0.5,0.5h-1c-0.277,0-0.5-0.225-0.5-0.5V25h-0.999v1
			c0,0.553,0.448,1.002,0.999,1.002h2c0.553,0,1-0.449,1-1.002v-1h-1V25.5z"/>
	</g>
</g>
</svg>
