<?xml version="1.0" encoding="utf-8"?>
<!-- Generator: Adobe Illustrator 15.0.0, SVG Export Plug-In . SVG Version: 6.00 Build 0)  -->
<!DOCTYPE svg PUBLIC "-//W3C//DTD SVG 1.1//EN" "http://www.w3.org/Graphics/SVG/1.1/DTD/svg11.dtd">
<svg version="1.1" id="Layer_1" xmlns="http://www.w3.org/2000/svg" xmlns:xlink="http://www.w3.org/1999/xlink" x="0px" y="0px"
	 width="32px" height="24px" viewBox="0 0 32 24" enable-background="new 0 0 32 24" xml:space="preserve">
<g id="_x30_4">
	<g>
		<path fill-rule="evenodd" clip-rule="evenodd" d="M25.562,3.591c0.243,0.13,0.546,0.037,0.677-0.207l1.408-2.648
			c0.129-0.244,0.037-0.547-0.207-0.677C27.366,0.021,27.287,0.001,27.21,0c-0.181-0.001-0.356,0.096-0.446,0.266l-1.408,2.649
			C25.225,3.158,25.318,3.461,25.562,3.591z M27.726,6.486c0.15,0.231,0.46,0.298,0.692,0.147l3.354-2.179
			C31.92,4.359,32,4.2,32,4.037c0-0.094-0.025-0.189-0.08-0.273c-0.15-0.231-0.461-0.298-0.692-0.147l-3.354,2.179
			C27.641,5.945,27.575,6.255,27.726,6.486z M4.685,11.998C4.242,12.78,4,13.672,4,14.5S4.672,16,5.5,16h21
			c0.829,0,1.5-0.672,1.5-1.5s-0.24-1.72-0.684-2.502C25.668,9.086,21.225,7,16,7C10.777,7,6.333,9.086,4.685,11.998z M16,8
			c4.789,0,8.863,1.792,10.373,4.38c0.363,0.646,0.445,1.009,0.529,1.382c0.191,0.711-0.08,1.238-0.84,1.238H5.938
			c-0.759,0-1.03-0.527-0.84-1.238c0.091-0.373,0.167-0.742,0.529-1.382C7.138,9.792,11.212,8,16,8z M31.355,22.102
			c-0.169-0.111-0.407-0.223-0.513-0.279c-0.101-0.057-0.199-0.121-0.339-0.238c-0.162-0.135-0.321-0.314-0.467-0.527
			c-0.135-0.195-0.259-0.42-0.363-0.666c-0.098-0.229-0.17-0.457-0.217-0.676c-0.023-0.111-0.033-0.164-0.062-0.344
			C29.252,18.555,28.579,18,27.75,18H4.25c-0.829,0-1.501,0.555-1.645,1.371c-0.038,0.203-0.043,0.271-0.076,0.41
			c-0.047,0.197-0.115,0.404-0.202,0.609c-0.106,0.25-0.231,0.477-0.368,0.674c-0.172,0.25-0.362,0.451-0.552,0.592
			c-0.061,0.043-0.162,0.117-0.249,0.166C1.052,21.881,0.815,21.99,0.647,22.1C0.3,22.328,0,22.627,0,23c0,0.553,0.448,1,1,1h30.001
			c0.552,0,1-0.447,1-1C32.001,22.629,31.703,22.328,31.355,22.102z M30.264,23H1.736c-0.668,0,0.063-0.303,0.608-0.832
			c0.095-0.092,0.438-0.459,0.766-1.076c0.324-0.609,0.399-1.115,0.416-1.178C3.66,19.369,3.701,19,4.552,19h22.893
			c0.854,0,0.927,0.369,1.061,0.914c0.014,0.057,0.058,0.568,0.389,1.186c0.329,0.613,0.641,0.959,0.734,1.051
			C30.198,22.701,30.933,23,30.264,23z M13.5,5h2v2H16h0.5V5h2C18.777,5,19,4.776,19,4.5S18.777,4,18.5,4h-5
			C13.224,4,13,4.224,13,4.5S13.224,5,13.5,5z M3.583,6.634c0.231,0.15,0.542,0.084,0.692-0.147S4.36,5.945,4.128,5.795L0.773,3.616
			c-0.231-0.15-0.542-0.084-0.692,0.147C0.026,3.848,0,3.943,0,4.037C0.001,4.2,0.082,4.359,0.229,4.455L3.583,6.634z M5.763,3.384
			c0.13,0.244,0.433,0.337,0.676,0.207s0.336-0.433,0.207-0.676L5.238,0.266C5.147,0.097,4.974,0,4.794,0
			C4.715,0.001,4.636,0.02,4.562,0.059c-0.244,0.13-0.336,0.433-0.207,0.677L5.763,3.384z M8.488,13.001
			c0.096,0,0.192-0.027,0.278-0.085c0.229-0.153,0.425-0.344,0.911-0.639c0.171-0.096,0.35-0.194,0.536-0.286
			c0.237-0.117,0.484-0.227,0.741-0.327c0.375-0.144,0.436-0.163,0.699-0.247C11.865,11.35,12,11.152,12,10.94
			c0-0.05-0.007-0.101-0.023-0.151c-0.083-0.263-0.365-0.408-0.628-0.325c-0.263,0.084-0.322,0.108-0.714,0.252
			c-0.632,0.245-1.14,0.503-1.642,0.807c-0.486,0.315-0.582,0.419-0.805,0.581c-0.209,0.151-0.267,0.447-0.113,0.676
			C8.171,12.923,8.328,13.001,8.488,13.001z"/>
	</g>
</g>
</svg>
