<?xml version="1.0" encoding="utf-8"?>
<!-- Generator: Adobe Illustrator 15.0.0, SVG Export Plug-In . SVG Version: 6.00 Build 0)  -->
<!DOCTYPE svg PUBLIC "-//W3C//DTD SVG 1.1//EN" "http://www.w3.org/Graphics/SVG/1.1/DTD/svg11.dtd">
<svg version="1.1" id="Layer_1" xmlns="http://www.w3.org/2000/svg" xmlns:xlink="http://www.w3.org/1999/xlink" x="0px" y="0px"
	 width="32px" height="32px" viewBox="0 0 32 32" enable-background="new 0 0 32 32" xml:space="preserve">
<g id="_x30_3">
	<g>
		<path fill-rule="evenodd" clip-rule="evenodd" d="M11.303,20.018c-0.26-0.094-0.546,0.041-0.641,0.299l-0.342,0.941
			c-0.095,0.258,0.039,0.545,0.299,0.641c0.259,0.094,0.546-0.039,0.641-0.299l0.342-0.939C11.696,20.4,11.562,20.113,11.303,20.018
			z M16,30.001c-0.276,0-0.5,0.223-0.5,0.5v1c0,0.275,0.224,0.5,0.5,0.5c0.276,0,0.5-0.225,0.5-0.5v-1
			C16.5,30.224,16.276,30.001,16,30.001z M16,20c-0.276,0-0.5,0.225-0.5,0.5v1c0,0.277,0.224,0.5,0.5,0.5c0.276,0,0.5-0.223,0.5-0.5
			v-1C16.5,20.225,16.276,20,16,20z M16,25c-0.276,0-0.5,0.225-0.5,0.5v1.001c0,0.275,0.224,0.5,0.5,0.5c0.276,0,0.5-0.225,0.5-0.5
			V25.5C16.5,25.225,16.276,25,16,25z M3.75,24.416c-0.239-0.139-0.545-0.057-0.683,0.182l-0.5,0.867
			c-0.138,0.238-0.056,0.544,0.183,0.683s0.545,0.057,0.683-0.183l0.5-0.865C4.071,24.859,3.99,24.553,3.75,24.416z M1.25,28.745
			c-0.24-0.137-0.545-0.055-0.683,0.184l-0.5,0.865c-0.139,0.24-0.057,0.545,0.183,0.684s0.545,0.057,0.684-0.184l0.5-0.865
			C1.571,29.19,1.49,28.884,1.25,28.745z M6.25,20.086c-0.239-0.139-0.545-0.057-0.683,0.182l-0.5,0.867
			c-0.138,0.238-0.056,0.545,0.183,0.684c0.239,0.137,0.545,0.055,0.683-0.184l0.5-0.867C6.571,20.529,6.49,20.223,6.25,20.086z
			 M7.882,29.415c-0.259-0.094-0.546,0.039-0.641,0.299l-0.342,0.939c-0.094,0.26,0.04,0.547,0.299,0.641
			c0.259,0.096,0.546-0.039,0.641-0.299l0.342-0.939C8.275,29.796,8.142,29.511,7.882,29.415z M9.592,24.717
			c-0.259-0.094-0.546,0.039-0.641,0.299l-0.342,0.939c-0.094,0.261,0.04,0.546,0.299,0.642c0.26,0.094,0.546-0.039,0.641-0.299
			l0.342-0.94C9.986,25.098,9.852,24.811,9.592,24.717z M25.5,14h-0.546C24.498,9.061,20.664,6,16,6s-8.498,3.061-8.954,8H6.5
			C5.672,14,5,14.672,5,15.5S5.672,17,6.5,17h19c0.828,0,1.5-0.671,1.5-1.5S26.328,14,25.5,14z M25.5,16h-19
			C6.224,16,6,15.777,6,15.5S6.224,15,6.5,15c0,0,0.866,0,1.09,0H20.5c0.276,0,0.5-0.224,0.5-0.5S20.776,14,20.5,14H8.064
			C8.496,9.645,11.884,7,16,7c4.248,0,7.724,2.807,7.976,7.408C23.986,14.582,24.044,15,24.409,15c0.226,0,1.091,0,1.091,0
			c0.276,0,0.5,0.224,0.5,0.5S25.776,16,25.5,16z M27.5,0h-9c-1.656,0-3,1.343-3,3v1.5h1V3c0-1.104,0.895-2,2-2h9
			C27.776,1,28,0.776,28,0.5S27.776,0,27.5,0z M28.934,24.598c-0.139-0.238-0.444-0.32-0.684-0.182
			c-0.239,0.137-0.321,0.443-0.183,0.684l0.5,0.865c0.138,0.239,0.443,0.321,0.683,0.183s0.321-0.444,0.184-0.683L28.934,24.598z
			 M31.934,29.794l-0.5-0.865c-0.138-0.238-0.443-0.32-0.683-0.184c-0.239,0.139-0.321,0.445-0.184,0.684l0.5,0.865
			c0.139,0.24,0.444,0.322,0.684,0.184S32.071,30.034,31.934,29.794z M26.434,20.268c-0.139-0.238-0.444-0.32-0.684-0.182
			c-0.239,0.137-0.321,0.443-0.183,0.682l0.5,0.867c0.138,0.238,0.443,0.32,0.683,0.184c0.239-0.139,0.321-0.445,0.184-0.684
			L26.434,20.268z M21.339,20.316c-0.095-0.258-0.381-0.393-0.641-0.299c-0.26,0.096-0.394,0.383-0.299,0.643l0.342,0.939
			c0.095,0.26,0.382,0.393,0.641,0.299c0.26-0.096,0.394-0.383,0.299-0.641L21.339,20.316z M23.049,25.016
			c-0.095-0.26-0.381-0.393-0.641-0.299s-0.394,0.381-0.299,0.641l0.342,0.94c0.095,0.26,0.382,0.393,0.641,0.299
			c0.26-0.096,0.394-0.381,0.299-0.642L23.049,25.016z M24.759,29.714c-0.094-0.26-0.381-0.393-0.641-0.299
			c-0.26,0.096-0.394,0.381-0.299,0.641l0.342,0.939c0.095,0.26,0.382,0.395,0.642,0.299c0.259-0.094,0.393-0.381,0.299-0.641
			L24.759,29.714z"/>
	</g>
</g>
</svg>
