<?xml version="1.0" encoding="utf-8"?>
<!-- Generator: Adobe Illustrator 15.0.0, SVG Export Plug-In . SVG Version: 6.00 Build 0)  -->
<!DOCTYPE svg PUBLIC "-//W3C//DTD SVG 1.1//EN" "http://www.w3.org/Graphics/SVG/1.1/DTD/svg11.dtd">
<svg version="1.1" id="Layer_1" xmlns="http://www.w3.org/2000/svg" xmlns:xlink="http://www.w3.org/1999/xlink" x="0px" y="0px"
	 width="24px" height="24px" viewBox="0 0 24 24" enable-background="new 0 0 24 24" xml:space="preserve">
<g id="_x30_6">
	<g>
		<path fill="#020202" d="M1.449,7.487C1.555,6.436,1.671,5.338,1.754,4.49c0.034-0.341,0.073-0.68,0.103-0.919
			C1.929,2.996,1.972,2.89,2.259,2.637c0.251-0.223,0.657-0.36,0.928-0.459C4.77,1.597,7.927,1,12,1
			c4.072,0,7.229,0.597,8.812,1.178c0.272,0.101,0.68,0.236,0.932,0.456c0.285,0.248,0.33,0.365,0.395,0.912
			c0.029,0.247,0.072,0.595,0.105,0.944c0.086,0.853,0.201,1.948,0.307,2.997c0.098,0.974,0.188,1.897,0.253,2.557
			c0.434,0.273,0.794,0.569,1.091,0.882c-0.19-1.949-0.594-6.028-0.787-7.768c-0.051-0.466-0.262-0.857-0.571-1.162
			C22.26,1.729,21.9,1.528,21.604,1.405C19.877,0.695,16.443,0,12,0C7.556,0,4.123,0.694,2.396,1.405C2.1,1.527,1.743,1.729,1.469,2
			c-0.312,0.311-0.527,0.711-0.58,1.189c-0.193,1.75-0.594,5.792-0.783,7.732c0.298-0.312,0.658-0.607,1.091-0.88
			C1.261,9.382,1.352,8.458,1.449,7.487z M3.5,23h-2C1.224,23,1,23.225,1,23.5C1,23.777,1.224,24,1.5,24h2C3.776,24,4,23.777,4,23.5
			C4,23.225,3.776,23,3.5,23z M23.998,11.983V12H24C24,12,23.998,11.985,23.998,11.983z M23,14.277V14c0-1.538-1.412-2.871-5-3.541
			l0.002-1.468C18.002,7.887,15.963,7,11.987,7C8.011,7,6.001,7.887,6.001,8.991L6,10.459C2.412,11.128,1,12.462,1,14v0.277
			C0.405,14.624,0,15.264,0,16v3c0,1.105,0.896,2,2,2h20c1.104,0,2-0.895,2-2v-3C24,15.264,23.596,14.625,23,14.277z M7.441,8.694
			c0.658-0.295,1.018-0.376,1.741-0.496C9.955,8.07,10.905,8,11.987,8c1.085,0,2.042,0.071,2.821,0.2
			c0.723,0.121,1.084,0.2,1.743,0.495c0.355,0.158,0.445,0.304,0.445,0.773l0.001,0.829C15.614,10.107,13.963,10,12,10
			s-3.615,0.107-5,0.298V9.469C7,8.999,7.087,8.853,7.441,8.694z M2.259,13.203c0.198-0.282,0.521-0.555,0.962-0.805
			C4.641,11.591,7.397,11,12,11c3.801,0,6.342,0.403,7.912,0.997c0.924,0.35,1.52,0.767,1.828,1.206C21.924,13.465,22,13.732,22,14
			H2C2,13.732,2.076,13.465,2.259,13.203z M23,19c0,0.553-0.447,1-1,1H2c-0.552,0-1-0.447-1-1v-3c0-0.553,0.448-1,1-1h20
			c0.553,0,1,0.447,1,1V19z M22.5,23h-2c-0.277,0-0.5,0.225-0.5,0.5c0,0.277,0.223,0.5,0.5,0.5h2c0.275,0,0.5-0.223,0.5-0.5
			C23,23.225,22.775,23,22.5,23z"/>
	</g>
</g>
</svg>
