<?xml version="1.0" encoding="utf-8"?>
<!-- Generator: Adobe Illustrator 15.0.0, SVG Export Plug-In . SVG Version: 6.00 Build 0)  -->
<!DOCTYPE svg PUBLIC "-//W3C//DTD SVG 1.1//EN" "http://www.w3.org/Graphics/SVG/1.1/DTD/svg11.dtd">
<svg version="1.1" id="Layer_1" xmlns="http://www.w3.org/2000/svg" xmlns:xlink="http://www.w3.org/1999/xlink" x="0px" y="0px"
	 width="32px" height="29px" viewBox="0 0 32 29" enable-background="new 0 0 32 29" xml:space="preserve">
<g id="_x32_5">
	<g>
		<path fill-rule="evenodd" clip-rule="evenodd" d="M28.501,0c-1.934,0-3.5,1.567-3.5,3.5V9H15V3.5C15,2.119,16.12,1,17.501,1
			s2.5,1.119,2.5,2.5v2c0,0.276,0.224,0.5,0.5,0.5c0.275,0,0.5-0.224,0.5-0.5v-2c0-1.933-1.567-3.5-3.5-3.5
			C15.567,0,14,1.567,14,3.5v10.001c0,1.933,0,3,0,3c0,0.276,0.225,0.5,0.5,0.5c0.276,0,0.5-0.224,0.5-0.5c0,0,0-0.663,0-1.5h10.001
			c0,1.369,0,2.5,0,2.5c0,0.276,0.224,0.5,0.5,0.5c0.275,0,0.5-0.224,0.5-0.5c0,0,0-2.619,0-4V3.5c0-1.381,1.119-2.5,2.5-2.5
			s2.5,1.119,2.5,2.5v2c0,0.276,0.224,0.5,0.5,0.5c0.275,0,0.5-0.224,0.5-0.5v-2C32.001,1.567,30.434,0,28.501,0z M25.001,14.001H15
			V10h10.001V14.001z M28.397,21.857c0,0-0.521,0.147-0.876,0.199c-1.99,0.288-4.807,0.497-7.101-0.098
			c-2.773-0.72-9.578-4.003-12.812-3.958c-2.364,0-4.173,0.777-5.307,1.456c-0.48,0.288-0.842,0.574-1.126,0.804
			c-0.324,0.262-0.543,0.45-0.633,0.525c-0.169,0.141-0.383,0.347-0.383,0.347C0.054,21.232,0,21.366,0,21.501
			c0.001,0.121,0.045,0.243,0.134,0.339C0.232,21.946,0.363,22,0.497,22c0.122,0,0.247-0.044,0.343-0.134
			c0,0,0.309-0.281,0.416-0.37c0.366-0.304,0.915-0.81,1.744-1.285c0.526-0.303,1.213-0.614,1.909-0.814
			c0.836-0.241,1.705-0.396,2.699-0.396c1.427,0,3.543,0.656,5.711,1.442c2.733,0.99,5.615,2.21,7.096,2.547
			c1.424,0.324,2.928,0.386,4.288,0.335c1.065-0.04,2.042-0.149,2.818-0.256c0.531-0.073,1.085-0.234,1.085-0.234
			c0.234-0.051,0.396-0.257,0.396-0.487c0-0.035-0.003-0.07-0.011-0.106C28.933,21.971,28.667,21.799,28.397,21.857z M28.397,27.517
			c0,0-0.521,0.147-0.876,0.199c-1.99,0.288-4.807,0.497-7.101-0.098c-2.773-0.72-9.578-4.003-12.812-3.957
			c-2.364,0-4.173,0.776-5.307,1.456c-0.48,0.287-0.842,0.573-1.126,0.803c-0.324,0.262-0.543,0.451-0.633,0.525
			c-0.169,0.141-0.383,0.348-0.383,0.348C0.054,26.892,0,27.025,0,27.16c0.001,0.121,0.045,0.243,0.134,0.339
			c0.099,0.106,0.229,0.16,0.363,0.16c0.122,0,0.247-0.044,0.343-0.133c0,0,0.309-0.282,0.416-0.371
			C1.622,26.853,2.171,26.346,3,25.87c0.526-0.302,1.213-0.614,1.909-0.814c0.836-0.241,1.705-0.395,2.699-0.395
			c1.427,0,3.543,0.656,5.711,1.441c2.733,0.99,5.615,2.21,7.096,2.547c1.149,0.262,2.35,0.353,3.485,0.351
			c0.272,0,0.54-0.006,0.803-0.016c1.065-0.04,2.042-0.149,2.818-0.256c0.531-0.073,1.085-0.234,1.085-0.234
			c0.234-0.05,0.396-0.257,0.396-0.487c0-0.035-0.003-0.07-0.011-0.106C28.933,27.631,28.667,27.459,28.397,27.517z"/>
	</g>
</g>
</svg>
