<?xml version="1.0" encoding="utf-8"?>
<!-- Generator: Adobe Illustrator 15.0.0, SVG Export Plug-In . SVG Version: 6.00 Build 0)  -->
<!DOCTYPE svg PUBLIC "-//W3C//DTD SVG 1.1//EN" "http://www.w3.org/Graphics/SVG/1.1/DTD/svg11.dtd">
<svg version="1.1" id="Layer_1" xmlns="http://www.w3.org/2000/svg" xmlns:xlink="http://www.w3.org/1999/xlink" x="0px" y="0px"
	 width="32px" height="28px" viewBox="0 0 32 28" enable-background="new 0 0 32 28" xml:space="preserve">
<g id="_x33_1">
	<g>
		<path fill-rule="evenodd" clip-rule="evenodd" d="M26.421,17.743c0.296,0.034,0.537-0.13,0.59-0.4
			c0.053-0.271-0.125-0.534-0.396-0.587c-0.09-0.017-0.139-0.032-0.353-0.038c-0.351,0-0.696,0.093-1,0.268
			c-0.09,0.054-0.157,0.091-0.304,0.215c-0.209,0.181-0.23,0.497-0.05,0.705c0.182,0.208,0.497,0.23,0.706,0.049
			c0-0.001,0.12-0.097,0.244-0.151c0.091-0.04,0.188-0.066,0.286-0.078C26.228,17.715,26.42,17.742,26.421,17.743z M27.28,14.824
			c-0.071-0.267-0.346-0.425-0.612-0.354l-2.897,0.776c-0.267,0.071-0.426,0.346-0.354,0.612c0.071,0.267,0.346,0.425,0.612,0.354
			l2.897-0.776C27.193,15.365,27.352,15.091,27.28,14.824z M17.998,23.088l-0.997-2.087H15l-0.997,2.087
			C11.673,23.294,10,23.848,10,24.501c0,0.828,2.687,1.5,6.001,1.5c3.313,0,6-0.672,6-1.5
			C22.001,23.848,20.328,23.294,17.998,23.088z M16.001,25.001c-2.21,0-4.001-0.224-4.001-0.5c0-0.219,1.126-0.402,2.686-0.47
			l0.939-2.03h0.751l0.939,2.03c1.56,0.067,2.686,0.251,2.686,0.47C20.001,24.777,18.21,25.001,16.001,25.001z M25.493,19.376
			c-0.002,0-0.104-0.134-0.158-0.259c-0.04-0.091-0.066-0.188-0.078-0.285c-0.01-0.083,0.012-0.293,0.014-0.294
			c0.034-0.296-0.13-0.537-0.401-0.59c-0.271-0.053-0.533,0.124-0.586,0.396c-0.017,0.09-0.027,0.157-0.033,0.37
			c0,0.351,0.093,0.696,0.268,1c0.053,0.09,0.098,0.172,0.222,0.318c0.181,0.208,0.496,0.23,0.705,0.05
			C25.652,19.9,25.675,19.585,25.493,19.376z M27.012,18.071c0.001,0,0.125,0.171,0.158,0.248c0.039,0.091,0.064,0.188,0.075,0.286
			c0.016,0.135-0.008,0.286-0.009,0.288c-0.053,0.271,0.124,0.533,0.396,0.586c0.271,0.053,0.533-0.125,0.586-0.396
			c0.033-0.188,0.032-0.266,0.033-0.371c0-0.35-0.093-0.695-0.268-0.999c-0.112-0.182-0.155-0.234-0.214-0.304
			c-0.182-0.209-0.497-0.231-0.706-0.05C26.855,17.542,26.833,17.832,27.012,18.071z M25.497,20.1
			c-0.052,0.271,0.125,0.533,0.396,0.586c0.188,0.034,0.267,0.033,0.371,0.034c0.351-0.001,0.695-0.094,0.999-0.269
			c0.183-0.111,0.235-0.154,0.305-0.214c0.208-0.182,0.23-0.497,0.049-0.705c-0.181-0.209-0.472-0.23-0.711-0.053
			c0,0.002-0.171,0.126-0.248,0.158c-0.091,0.039-0.188,0.064-0.285,0.075c-0.136,0.016-0.287-0.007-0.288-0.009
			C25.812,19.651,25.55,19.828,25.497,20.1z M28.824,12.857c-0.286-1.066-1.383-1.7-2.45-1.414l-3.863,1.035
			c-1.066,0.286-1.7,1.383-1.414,2.449l3.105,11.592c0.286,1.066,1.383,1.7,2.45,1.414l3.863-1.035
			c0.894-0.24,1.483-1.049,1.482-1.932c0-0.171-0.021-0.345-0.068-0.519L28.824,12.857z M30.063,25.984l-3.478,0.932
			c-0.8,0.214-1.255-0.049-1.47-0.849l-3.002-11.205c-0.215-0.8,0.048-1.255,0.849-1.47l3.478-0.932
			c0.8-0.214,1.255,0.049,1.47,0.849l3.002,11.205C31.127,25.314,30.864,25.77,30.063,25.984z M3.852,6.681l2.829-2.829
			c0.195-0.195,0.195-0.512,0-0.707C6.583,3.048,6.456,2.999,6.328,2.998c-0.128,0-0.257,0.049-0.354,0.146L3.145,5.973
			C3.047,6.071,2.998,6.199,2.998,6.328c0.001,0.127,0.05,0.255,0.146,0.353C3.34,6.875,3.657,6.875,3.852,6.681z M28.738,22.198
			c0.267-0.071,0.425-0.346,0.354-0.612s-0.346-0.426-0.612-0.354l-2.897,0.776c-0.267,0.071-0.425,0.346-0.354,0.612
			s0.346,0.425,0.612,0.354L28.738,22.198z M29.001,0H3C1.343,0,0,1.343,0,3v14.001c0,1.656,1.343,3,3,3h17.001v-1H3
			c-1.104,0-2-0.896-2-2V3c0-1.104,0.896-2,2-2h26.001c1.104,0,2,0.896,2,2v10.001h1V3C32.001,1.343,30.657,0,29.001,0z
			 M28.997,23.164L26.1,23.94c-0.267,0.071-0.425,0.346-0.354,0.612s0.346,0.425,0.612,0.354l2.897-0.776
			c0.267-0.071,0.426-0.346,0.354-0.612C29.538,23.251,29.264,23.093,28.997,23.164z M3.853,11.631l7.777-7.779
			c0.195-0.195,0.195-0.512,0-0.707c-0.098-0.098-0.227-0.146-0.354-0.146c-0.128,0.001-0.255,0.05-0.353,0.146l-7.777,7.779
			c-0.099,0.099-0.147,0.227-0.146,0.355c0,0.127,0.049,0.255,0.146,0.352C3.34,11.826,3.657,11.826,3.853,11.631z"/>
	</g>
</g>
</svg>
