<?xml version="1.0" encoding="utf-8"?>
<!-- Generator: Adobe Illustrator 15.0.0, SVG Export Plug-In . SVG Version: 6.00 Build 0)  -->
<!DOCTYPE svg PUBLIC "-//W3C//DTD SVG 1.1//EN" "http://www.w3.org/Graphics/SVG/1.1/DTD/svg11.dtd">
<svg version="1.1" id="Layer_1" xmlns="http://www.w3.org/2000/svg" xmlns:xlink="http://www.w3.org/1999/xlink" x="0px" y="0px"
	 width="26px" height="32px" viewBox="0 0 26 32" enable-background="new 0 0 26 32" xml:space="preserve">
<g id="_x31_8">
	<g>
		<path fill-rule="evenodd" clip-rule="evenodd" d="M13,11.011c-4.972,0-9.002,4.026-9.002,8.994s4.03,8.994,9.002,8.994
			c4.972,0,9.002-4.026,9.002-8.994S17.972,11.011,13,11.011z M13,27.999c-4.419,0-8.002-3.579-8.002-7.994S8.581,12.01,13,12.01
			c4.42,0,8.002,3.58,8.002,7.995S17.42,27.999,13,27.999z M7.5,19.001c-0.276,0-0.5,0.224-0.5,0.5s0.224,0.5,0.5,0.5
			s0.5-0.224,0.5-0.5S7.776,19.001,7.5,19.001z M12.457,14.023c-0.128,0.012-0.292,0.033-0.398,0.05
			c-1.766,0.278-3.276,1.329-4.175,2.794c-0.066,0.105-0.161,0.271-0.22,0.391c-0.134,0.242-0.046,0.547,0.195,0.681
			c0.242,0.134,0.546,0.046,0.68-0.195c0.084-0.147,0.147-0.28,0.247-0.432c0.741-1.159,1.947-1.994,3.355-2.238
			c0.189-0.032,0.344-0.048,0.404-0.054c0.275-0.023,0.479-0.267,0.455-0.541C12.974,14.203,12.731,14,12.457,14.023z M13,1.999
			c-1.38,0-2.499,1.119-2.499,2.501C10.501,5.881,11.62,7,13,7c1.38,0,2.498-1.119,2.498-2.5C15.498,3.118,14.38,1.999,13,1.999z
			 M13,6c-0.829,0-1.501-0.671-1.501-1.499c0-0.829,0.672-1.5,1.501-1.5s1.501,0.671,1.501,1.5C14.501,5.329,13.829,6,13,6z M21,0H5
			C2.238,0,0,2.238,0,5v22.001c0,2.762,2.238,5,5,5h16c2.762,0,5-2.238,5-5V5C26,2.238,23.762,0,21,0z M25,27.001
			c0,2.209-1.791,4-4,4H5c-2.209,0-4-1.791-4-4V8.17c0.504,0.074,1.175,0.166,1.997,0.263C5.315,8.707,8.753,9.01,12.5,9.01
			c3.953,0,7.906-0.337,10.503-0.622C23.82,8.298,24.493,8.216,25,8.15V27.001z M25,7.142c-2.112,0.273-7.293,0.866-12.5,0.866
			c-5.06,0-9.567-0.564-11.5-0.846V5c0-2.209,1.791-4,4-4h16c2.209,0,4,1.791,4,4V7.142z M21,2.999h-3c-0.552,0-1,0.447-1,1v1
			c0,0.553,0.448,1,1,1h3c0.552,0,0.999-0.447,0.999-1v-1C21.999,3.446,21.552,2.999,21,2.999z M21,5h-3V4h3V5z M8.5,5h-4
			C4.224,5,4,5.224,4,5.5S4.224,6,4.5,6h4C8.776,6,9,5.776,9,5.5S8.776,5,8.5,5z"/>
	</g>
</g>
</svg>
