<?xml version="1.0" encoding="utf-8"?>
<!-- Generator: Adobe Illustrator 15.0.0, SVG Export Plug-In . SVG Version: 6.00 Build 0)  -->
<!DOCTYPE svg PUBLIC "-//W3C//DTD SVG 1.1//EN" "http://www.w3.org/Graphics/SVG/1.1/DTD/svg11.dtd">
<svg version="1.1" id="Layer_1" xmlns="http://www.w3.org/2000/svg" xmlns:xlink="http://www.w3.org/1999/xlink" x="0px" y="0px"
	 width="20px" height="32px" viewBox="0 0 20 32" enable-background="new 0 0 20 32" xml:space="preserve">
<g id="_x31_5">
	<g>
		<path fill-rule="evenodd" clip-rule="evenodd" d="M17.001,0H3C1.343,0,0,1.343,0,3v26.001c0,1.656,1.343,3,3,3h14.001
			c1.656,0,3-1.344,3-3V3C20.001,1.343,18.657,0,17.001,0z M3,1h14.001c0.738,0,1.376,0.405,1.723,1H1.277C1.624,1.405,2.262,1,3,1z
			 M17.001,31.001H3c-0.738,0-1.376-0.405-1.722-1h17.445C18.377,30.596,17.739,31.001,17.001,31.001z M19.001,29.001H1V3h18.001
			V29.001z M13.004,12.579C12.094,12.208,11.075,12,10.001,12c-1.075,0-2.095,0.208-3.005,0.579
			c-1.092,0.496-1.593,0.895-1.72,0.992c-0.218,0.17-0.256,0.484-0.086,0.702s0.484,0.256,0.702,0.086
			c0.201-0.147,0.547-0.399,1.125-0.684c0.346-0.168,0.695-0.311,1.08-0.419C8.695,13.089,9.334,13,10.001,13
			s1.307,0.089,1.903,0.257c0.385,0.108,0.732,0.251,1.078,0.418c0.585,0.291,0.931,0.537,1.126,0.685
			c0.218,0.17,0.532,0.132,0.702-0.086s0.132-0.532-0.086-0.702C14.595,13.471,13.99,13.014,13.004,12.579z M10.001,18.001
			c-0.829,0-1.501,0.672-1.501,1.5s0.672,1.5,1.501,1.5c0.828,0,1.5-0.672,1.5-1.5S10.829,18.001,10.001,18.001z M10.001,20.001
			c-0.276,0-0.5-0.225-0.5-0.5c0-0.277,0.224-0.5,0.5-0.5s0.5,0.223,0.5,0.5C10.501,19.776,10.277,20.001,10.001,20.001z
			 M12.72,15.651c-0.089-0.046-0.462-0.221-0.715-0.308C11.378,15.122,10.703,15,10.001,15c-0.703,0-1.378,0.121-2.005,0.343
			c-0.275,0.103-0.607,0.252-0.715,0.308C7.104,15.738,7,15.916,7,16.101c0,0.074,0.016,0.148,0.051,0.219
			c0.121,0.248,0.42,0.352,0.668,0.23c0.068-0.033,0.195-0.09,0.277-0.131C8.609,16.149,9.288,16,10.001,16s1.391,0.149,2.004,0.418
			c0.076,0.031,0.207,0.098,0.277,0.131c0.248,0.121,0.547,0.018,0.668-0.23c0.035-0.072,0.052-0.146,0.051-0.223
			C13,15.914,12.896,15.737,12.72,15.651z M3.821,12.027c0.066-0.054,0.247-0.201,0.477-0.362c0.208-0.146,0.456-0.302,0.698-0.44
			C6.36,10.462,8.1,10,10.001,10s3.64,0.462,5.004,1.224c0.248,0.141,0.495,0.296,0.7,0.44c0.237,0.168,0.418,0.317,0.475,0.362
			c0.211,0.178,0.526,0.15,0.704-0.062c0.078-0.093,0.116-0.205,0.117-0.318c0.001-0.144-0.06-0.286-0.179-0.386
			c-0.096-0.084-0.793-0.668-1.818-1.165C13.573,9.404,11.853,9,10.001,9c-1.853,0-3.573,0.403-5.005,1.096
			c-1.041,0.511-1.716,1.075-1.817,1.165c-0.119,0.1-0.18,0.242-0.179,0.386c0.001,0.113,0.039,0.226,0.117,0.318
			C3.295,12.177,3.609,12.205,3.821,12.027z"/>
	</g>
</g>
</svg>
