<?xml version="1.0" encoding="utf-8"?>
<!-- Generator: Adobe Illustrator 15.0.0, SVG Export Plug-In . SVG Version: 6.00 Build 0)  -->
<!DOCTYPE svg PUBLIC "-//W3C//DTD SVG 1.1//EN" "http://www.w3.org/Graphics/SVG/1.1/DTD/svg11.dtd">
<svg version="1.1" id="Layer_1" xmlns="http://www.w3.org/2000/svg" xmlns:xlink="http://www.w3.org/1999/xlink" x="0px" y="0px"
	 width="96px" height="13px" viewBox="0 0 96 13" enable-background="new 0 0 96 13" xml:space="preserve">
<circle fill="#D8D8D8" cx="48.011" cy="6.04" r="6.04"/>
<path fill="#D8D8D8" d="M36.597,4.146c-0.832,0-1.545,0.354-1.858,1.354H3.888c-0.313-1-1.026-1.354-1.858-1.354
	C0.908,4.146,0,4.986,0,6.109c0,1.12,0.908,1.819,2.03,1.819c0.833,0,1.547-0.429,1.86-1.429h30.847c0.313,1,1.026,1.396,1.86,1.396
	c1.122,0,2.03-0.754,2.03-1.875C38.627,4.899,37.719,4.146,36.597,4.146z"/>
<path fill="#D8D8D8" d="M93.971,4.146c-0.834,0-1.545,0.354-1.859,1.354h-30.85c-0.313-1-1.025-1.354-1.857-1.354
	c-1.122,0-2.03,0.841-2.03,1.964c0,1.121,0.908,1.818,2.03,1.818c0.832,0,1.546-0.428,1.859-1.428h30.846
	c0.314,1,1.027,1.395,1.861,1.395C95.092,7.895,96,7.143,96,6.021C96,4.899,95.092,4.146,93.971,4.146z"/>
</svg>
